<svg width="187" height="44" viewBox="0 0 187 44" fill="none" xmlns="http://www.w3.org/2000/svg">
<path d="M186.45 16.8268C186.31 16.6002 186.065 16.4648 185.793 16.4648H182.064C181.774 16.4648 181.504 16.629 181.376 16.883L173.812 31.9125C173.601 32.3047 173.34 32.4999 173.033 32.4999C172.572 32.4999 172.271 32.0319 172.238 31.9785C172.234 31.9717 172.23 31.9647 172.226 31.9575L164.53 16.8793C164.399 16.6236 164.136 16.4648 163.843 16.4648H159.874C159.602 16.4648 159.357 16.6003 159.217 16.8271C159.077 17.054 159.069 17.3289 159.197 17.5625L169.341 36.1464C169.621 36.6873 170.08 37.7171 170.055 38.6049C170.048 38.8325 170.013 39.1261 169.796 39.3783C169.492 39.7317 169.026 39.7844 168.775 39.7844C168.738 39.7844 168.707 39.7833 168.684 39.7822H164.428C164.005 39.7822 163.661 40.1173 163.661 40.5291V43.2523C163.661 43.6642 164.005 43.9992 164.428 43.9992H169.285C169.383 43.9877 169.496 43.9809 169.626 43.9732C170.31 43.9319 171.456 43.8631 172.424 42.919C172.858 42.4956 173.211 41.9984 173.472 41.4411C173.475 41.4357 173.478 41.4304 173.48 41.4252L186.471 17.5617C186.598 17.3281 186.59 17.0533 186.45 16.8268Z" fill="black"/>
<path d="M50.3352 33.8543C46.4067 33.8543 44.6174 30.2955 44.6174 26.9889C44.6174 21.7982 47.7438 19.9565 50.421 19.9565C53.8667 19.9565 56.1817 22.7659 56.1817 26.9474C56.1817 31.0141 53.7776 33.8543 50.3352 33.8543ZM58.4749 19.0024C56.7843 17.043 54.4148 16.0073 51.6226 16.0073C47.2679 16.0073 45.3374 18.8083 45.3185 18.8366C45.261 18.9223 45.1626 18.9745 45.0576 18.9745H44.9716C44.883 18.9745 44.7987 18.9378 44.7396 18.8735C44.6805 18.8092 44.6524 18.7234 44.6621 18.6377C44.663 18.6304 44.7463 17.8881 44.7463 16.8743V11.4674C44.7463 9.63775 43.2183 8.14941 41.34 8.14941H37.8331C37.5402 8.14941 37.3018 8.38144 37.3018 8.66668V11.5396C37.3018 11.8249 37.5402 12.057 37.8331 12.057H38.707C39.5047 12.057 39.9623 12.5026 39.9623 13.2797V36.7013C39.9623 36.9865 40.2006 37.2187 40.4934 37.2187H43.9147C44.2076 37.2187 44.4458 36.9865 44.4458 36.7013V36.4353C44.4458 35.6213 44.4042 35.0414 44.4037 35.0356C44.3976 34.9516 44.4276 34.8689 44.4864 34.8074C44.5453 34.7457 44.6278 34.7108 44.7143 34.7108H44.8C44.9073 34.7108 45.0071 34.7646 45.064 34.8533C45.0822 34.8815 46.97 37.7205 51.2792 37.7205C54.0291 37.7205 56.509 36.676 58.262 34.7799C60.087 32.8059 61.0516 30.0686 61.0516 26.8639C61.0516 23.6745 60.1606 20.9561 58.4749 19.0024Z" fill="black"/>
<path d="M75.4047 33.3518H75.3665C74.2117 33.3518 73.2723 32.4367 73.2723 31.3119V11.4631C73.2723 9.63547 71.7458 8.14844 69.8695 8.14844H66.3555C66.0645 8.14844 65.8278 8.37916 65.8278 8.66251V11.5421C65.8278 11.8256 66.0645 12.0562 66.3555 12.0562H67.233C68.0307 12.0562 68.4882 12.5018 68.4882 13.2789V34.6789C68.4882 36.506 69.207 37.2178 71.0518 37.2178H75.4047C75.6957 37.2178 75.9325 36.9872 75.9325 36.7039V33.8657C75.9325 33.5823 75.6957 33.3518 75.4047 33.3518Z" fill="black"/>
<path d="M94.4392 28.3688C94.4392 31.1616 92.2496 34.2731 89.1075 34.2731C86.7341 34.2731 85.4923 32.6905 85.4923 31.1273C85.4923 28.7416 88.1372 27.4806 93.141 27.4806H94.1279C94.2999 27.4806 94.4392 27.6165 94.4392 27.7839V28.3688ZM101.337 33.3532C100.171 33.3532 99.2232 32.4296 99.2232 31.2944V24.1894C99.2232 18.6076 96.2679 16.0078 89.9229 16.0078C88.6564 16.0078 82.3389 16.2047 82.3389 20.0931V21.5138C82.3389 21.8077 82.5843 22.0467 82.8859 22.0467H86.2756C86.5772 22.0467 86.8225 21.8077 86.8225 21.5138V21.2217C86.8225 19.9488 88.5619 19.4973 90.0515 19.4973C93.0563 19.4973 94.3963 20.8412 94.3963 23.8547V24.1474C94.3963 24.3149 94.2569 24.4506 94.085 24.4506H93.3986C87.6093 24.4506 80.7083 25.7032 80.7083 31.6706C80.7083 33.4654 81.4176 34.9987 82.7597 36.1049C84.024 37.147 85.7602 37.7209 87.6487 37.7209C92.1936 37.7209 94.0147 34.4042 94.1278 34.1826C94.1638 34.0537 94.2847 33.9588 94.4283 33.9588H94.5141C94.686 33.9588 94.8254 34.0946 94.8254 34.2622V35.1816C94.8254 36.1112 95.2478 37.2192 97.2602 37.2192H101.337C101.638 37.2192 101.884 36.9803 101.884 36.6865V33.8859C101.884 33.5921 101.638 33.3532 101.337 33.3532Z" fill="black"/>
<path d="M126.452 18.4051C124.85 17.1525 123.09 16.9055 121.804 16.7252L121.784 16.7223C121.248 16.6472 120.689 16.6091 120.121 16.6091C119.192 16.6091 118.263 16.7099 117.358 16.909C116.275 17.1472 115.227 17.5266 114.243 18.0365C114.197 18.0601 114.147 18.0719 114.096 18.0719C114.046 18.0719 113.995 18.06 113.949 18.0361C113.858 17.9883 113.797 17.8992 113.787 17.7985C113.772 17.6574 113.734 17.5224 113.674 17.3974C113.673 17.396 113.533 17.1188 113.249 16.9088C112.906 16.6546 112.22 16.5088 111.368 16.5088H107.436C107.008 16.5088 106.659 16.8484 106.659 17.2659V19.6594C106.659 20.0768 107.008 20.4164 107.436 20.4164H108.064C108.862 20.4164 109.319 20.8622 109.319 21.6392V36.4619C109.319 36.8793 109.668 37.2189 110.097 37.2189H113.369C113.798 37.2189 114.146 36.8793 114.146 36.4619V25.1215C114.146 25.1127 114.147 25.1041 114.147 25.0954C114.153 25.0297 114.163 24.9342 114.181 24.8203C114.339 24.0672 114.639 23.3909 115.075 22.7957C115.332 22.4448 116.735 20.6892 119.123 20.5931C119.192 20.5903 119.26 20.5889 119.327 20.5889C120.628 20.5889 121.638 21.081 122.256 21.4935C123.879 22.577 124.368 24.194 124.503 24.839C124.507 24.8589 124.509 24.8792 124.509 24.8995V27.8413V32.1301V34.6801C124.509 36.3924 125.134 37.0984 126.739 37.1976C126.768 37.1992 126.795 37.2048 126.822 37.2137C126.852 37.2114 126.882 37.2092 126.913 37.2083C126.917 37.2082 126.92 37.2082 126.923 37.2082C126.926 37.2082 126.929 37.2082 126.932 37.2083C126.964 37.2092 126.994 37.2114 127.024 37.2137C127.05 37.2048 127.078 37.1992 127.106 37.1976C128.711 37.0984 129.336 36.3924 129.336 34.6801V32.1301V27.3733V23.8285C129.223 22.7762 128.716 20.1765 126.452 18.4051Z" fill="black"/>
<path d="M152.949 31.6089C152.836 31.4227 152.636 31.3114 152.414 31.3114C152.27 31.3114 152.134 31.3585 152.021 31.4477C150.956 32.2843 148.777 33.6877 146.159 33.6877C142.703 33.6877 138.983 31.5393 138.983 26.8223C138.983 22.7958 141.838 19.8734 145.773 19.8734C147.174 19.8734 149.26 20.3994 149.26 21.8485V22.1092C149.26 22.4435 149.539 22.7155 149.882 22.7155H152.778C153.121 22.7155 153.4 22.4435 153.4 22.1092V20.5108C153.4 16.8168 147.894 16.0078 145.773 16.0078C142.292 16.0078 139.325 17.1254 137.194 19.2399C135.207 21.2104 134.113 23.9181 134.113 26.8644C134.113 29.8474 135.225 32.5767 137.245 34.5497C139.37 36.6242 142.289 37.7209 145.687 37.7209C150.188 37.7209 153.098 35.4579 154.14 34.4849C154.348 34.2905 154.39 33.9844 154.243 33.7406L152.949 31.6089Z" fill="black"/>
<path fill-rule="evenodd" clip-rule="evenodd" d="M10.5525 21.9803V38.1196C10.5525 41.232 13.1426 43.7551 16.3379 43.7551C18.418 43.7551 20.241 42.6853 21.2605 41.0802L21.261 41.0805L21.2668 41.0707C21.3281 40.9738 21.3864 40.8749 21.4417 40.7742L30.6866 25.1045C30.8296 24.896 30.9584 24.6778 31.0723 24.4509L31.076 24.4444L31.0759 24.4441C31.4479 23.6997 31.6572 22.8638 31.6572 21.9803C31.6572 18.9481 29.1985 16.4763 26.1174 16.3508L26.1169 16.3501H26.0905C26.0178 16.3474 25.9451 16.3447 25.8717 16.3447C25.7983 16.3447 25.7255 16.3474 25.6529 16.3501H16.5568C16.4841 16.3474 16.4113 16.3447 16.3379 16.3447C13.1426 16.3447 10.5525 18.8678 10.5525 21.9803Z" fill="#F06FB0"/>
<path fill-rule="evenodd" clip-rule="evenodd" d="M21.1048 21.7749V5.63548C21.1048 2.52309 18.5145 0 15.3193 0C13.2392 0 11.4162 1.06979 10.3966 2.67494L10.3961 2.67465L10.3903 2.68446C10.3291 2.78136 10.2707 2.88022 10.2155 2.98097L0.970566 18.6507C0.82766 18.8591 0.698634 19.0774 0.584906 19.3043L0.581101 19.3108L0.581324 19.3111C0.209172 20.0554 0 20.8913 0 21.7749C0 24.8071 2.45873 27.2788 5.53974 27.4044L5.54027 27.4051H5.56668C5.63937 27.4077 5.71205 27.4104 5.78548 27.4104C5.85891 27.4104 5.93167 27.4077 6.00436 27.4051H15.1004C15.1731 27.4077 15.2458 27.4104 15.3193 27.4104C18.5145 27.4104 21.1048 24.8873 21.1048 21.7749Z" fill="#F06FB0"/>
<path fill-rule="evenodd" clip-rule="evenodd" d="M10.5525 21.9802V27.4047H15.1004C15.1731 27.4074 15.2459 27.41 15.3192 27.41C18.5145 27.41 21.1048 24.8869 21.1048 21.7745V16.3501H16.5568C16.4841 16.3474 16.4114 16.3447 16.3379 16.3447C13.1427 16.3447 10.5525 18.8678 10.5525 21.9802Z" fill="#E03176"/>
</svg>
