<svg width="18" height="18" viewBox="0 0 18 18" fill="none" xmlns="http://www.w3.org/2000/svg">
<mask id="path-1-outside-1_2:132" maskUnits="userSpaceOnUse" x="0" y="0" width="18" height="18" fill="black">
<rect fill="white" width="18" height="18"/>
<path fill-rule="evenodd" clip-rule="evenodd" d="M17 1.67017C17.002 1.49807 16.9373 1.32532 16.806 1.194C16.6761 1.06412 16.5057 0.999451 16.3355 1C16.3347 1 16.334 1 16.3333 1H4.33329C3.9651 1 3.66662 1.29848 3.66662 1.66667C3.66662 2.03486 3.9651 2.33333 4.33329 2.33333H14.7299L1.194 15.8693C0.935333 16.1279 0.935333 16.5473 1.194 16.806C1.45267 17.0647 1.87205 17.0647 2.13072 16.806L15.6666 3.2701L15.6666 13.6667C15.6666 14.0349 15.9651 14.3333 16.3333 14.3333C16.7015 14.3333 17 14.0349 17 13.6667L17 1.67017Z"/>
</mask>
<path fill-rule="evenodd" clip-rule="evenodd" d="M17 1.67017C17.002 1.49807 16.9373 1.32532 16.806 1.194C16.6761 1.06412 16.5057 0.999451 16.3355 1C16.3347 1 16.334 1 16.3333 1H4.33329C3.9651 1 3.66662 1.29848 3.66662 1.66667C3.66662 2.03486 3.9651 2.33333 4.33329 2.33333H14.7299L1.194 15.8693C0.935333 16.1279 0.935333 16.5473 1.194 16.806C1.45267 17.0647 1.87205 17.0647 2.13072 16.806L15.6666 3.2701L15.6666 13.6667C15.6666 14.0349 15.9651 14.3333 16.3333 14.3333C16.7015 14.3333 17 14.0349 17 13.6667L17 1.67017Z" fill="#E64592"/>
<path d="M16.806 1.194L16.9474 1.05258V1.05258L16.806 1.194ZM17 1.67017L16.8 1.66783V1.67017H17ZM16.3355 1L16.3348 1.20001L16.3361 1.2L16.3355 1ZM14.7299 2.33333L14.8714 2.47475L15.2128 2.13333H14.7299V2.33333ZM1.194 15.8693L1.05258 15.7279H1.05258L1.194 15.8693ZM1.194 16.806L1.05258 16.9474H1.05258L1.194 16.806ZM2.13072 16.806L2.27214 16.9474H2.27214L2.13072 16.806ZM15.6666 3.2701H15.8666V2.78726L15.5252 3.12868L15.6666 3.2701ZM15.6666 13.6667H15.4666H15.6666ZM17 13.6667H16.8H17ZM16.6646 1.33542C16.7563 1.42712 16.8014 1.54735 16.8 1.66783L17.1999 1.67252C17.2026 1.44878 17.1184 1.22352 16.9474 1.05258L16.6646 1.33542ZM16.3361 1.2C16.4553 1.19962 16.5739 1.24472 16.6646 1.33542L16.9474 1.05258C16.7784 0.883512 16.5561 0.799286 16.3348 0.800005L16.3361 1.2ZM16.3361 0.800005C16.3352 0.800002 16.3342 0.8 16.3333 0.8V1.2C16.3338 1.2 16.3343 1.2 16.3348 1.2L16.3361 0.800005ZM16.3333 0.8H4.33329V1.2H16.3333V0.8ZM4.33329 0.8C3.85464 0.8 3.46662 1.18802 3.46662 1.66667H3.86662C3.86662 1.40893 4.07556 1.2 4.33329 1.2V0.8ZM3.46662 1.66667C3.46662 2.14531 3.85464 2.53333 4.33329 2.53333V2.13333C4.07556 2.13333 3.86662 1.9244 3.86662 1.66667H3.46662ZM4.33329 2.53333H14.7299V2.13333H4.33329V2.53333ZM1.33542 16.0107L14.8714 2.47475L14.5885 2.19191L1.05258 15.7279L1.33542 16.0107ZM1.33542 16.6646C1.15486 16.484 1.15486 16.1913 1.33542 16.0107L1.05258 15.7279C0.715807 16.0646 0.715806 16.6107 1.05258 16.9474L1.33542 16.6646ZM1.9893 16.6646C1.80874 16.8451 1.51598 16.8451 1.33542 16.6646L1.05258 16.9474C1.38935 17.2842 1.93537 17.2842 2.27214 16.9474L1.9893 16.6646ZM15.5252 3.12868L1.9893 16.6646L2.27214 16.9474L15.808 3.41152L15.5252 3.12868ZM15.4666 3.2701L15.4666 13.6667H15.8666L15.8666 3.2701H15.4666ZM15.4666 13.6667C15.4666 14.1453 15.8546 14.5333 16.3333 14.5333V14.1333C16.0756 14.1333 15.8666 13.9244 15.8666 13.6667H15.4666ZM16.3333 14.5333C16.8119 14.5333 17.2 14.1453 17.2 13.6667H16.8C16.8 13.9244 16.591 14.1333 16.3333 14.1333V14.5333ZM17.2 13.6667L17.2 1.67017H16.8L16.8 13.6667H17.2Z" fill="#E64592" mask="url(#path-1-outside-1_2:132)"/>
</svg>
