<svg width="19" height="20" viewBox="0 0 19 20" fill="none" xmlns="http://www.w3.org/2000/svg">
<path d="M6.33409 10C6.33409 8.15912 7.75147 6.6664 9.50038 6.6664C11.2493 6.6664 12.6674 8.15912 12.6674 10C12.6674 11.8409 11.2493 13.3336 9.50038 13.3336C7.75147 13.3336 6.33409 11.8409 6.33409 10ZM4.62205 10C4.62205 12.836 6.80607 15.1349 9.50038 15.1349C12.1947 15.1349 14.3787 12.836 14.3787 10C14.3787 7.164 12.1947 4.86512 9.50038 4.86512C6.80607 4.86512 4.62205 7.164 4.62205 10ZM13.4318 4.66152C13.4317 4.89886 13.4985 5.13089 13.6237 5.32829C13.7489 5.52568 13.9269 5.67956 14.1351 5.77047C14.3434 5.86138 14.5726 5.88524 14.7938 5.83904C15.015 5.79283 15.2181 5.67862 15.3776 5.51087C15.5371 5.34311 15.6458 5.12934 15.6899 4.89658C15.734 4.66382 15.7115 4.42253 15.6253 4.20322C15.5391 3.98392 15.393 3.79644 15.2056 3.6645C15.0182 3.53257 14.7978 3.4621 14.5723 3.462H14.5718C14.2696 3.46215 13.9798 3.58856 13.766 3.81347C13.5523 4.03837 13.4321 4.34339 13.4318 4.66152ZM5.66223 18.1398C4.73598 18.0954 4.23253 17.933 3.89797 17.7958C3.45441 17.614 3.13794 17.3975 2.8052 17.0478C2.47245 16.698 2.26649 16.3652 2.09457 15.8983C1.96415 15.5463 1.80986 15.0162 1.76775 14.0413C1.7217 12.9872 1.7125 12.6706 1.7125 10.0001C1.7125 7.3296 1.72246 7.01384 1.76775 5.95888C1.80994 4.98392 1.96536 4.45488 2.09457 4.10184C2.26725 3.63496 2.47291 3.30184 2.8052 2.9516C3.13748 2.60136 3.45365 2.38456 3.89797 2.2036C4.23238 2.06632 4.73598 1.90392 5.66223 1.8596C6.66364 1.81112 6.96446 1.80144 9.50038 1.80144C12.0363 1.80144 12.3374 1.81192 13.3397 1.8596C14.2659 1.904 14.7685 2.0676 15.1039 2.2036C15.5475 2.38456 15.864 2.60184 16.1967 2.9516C16.5294 3.30136 16.7347 3.63496 16.9073 4.10184C17.0378 4.45384 17.192 4.98392 17.2341 5.95888C17.2802 7.01384 17.2894 7.3296 17.2894 10.0001C17.2894 12.6706 17.2802 12.9863 17.2341 14.0413C17.192 15.0162 17.0369 15.5462 16.9073 15.8983C16.7347 16.3652 16.529 16.6983 16.1967 17.0478C15.8644 17.3972 15.5475 17.614 15.1039 17.7958C14.7695 17.933 14.2659 18.0954 13.3397 18.1398C12.3383 18.1882 12.0374 18.1979 9.50038 18.1979C6.96332 18.1979 6.66334 18.1882 5.66223 18.1398ZM5.58356 0.06056C4.57219 0.10904 3.8811 0.27784 3.27755 0.52504C2.65251 0.78032 2.12337 1.1228 1.59462 1.67848C1.06587 2.23416 0.741334 2.792 0.498808 3.44992C0.263959 4.0856 0.103592 4.81264 0.0575343 5.8772C0.0107164 6.94344 0 7.28432 0 10C0 12.7157 0.0107164 13.0566 0.0575343 14.1228C0.103592 15.1874 0.263959 15.9144 0.498808 16.5501C0.741334 17.2076 1.06594 17.7661 1.59462 18.3215C2.1233 18.877 2.65251 19.219 3.27755 19.475C3.88224 19.7222 4.57219 19.891 5.58356 19.9394C6.59706 19.9879 6.92038 20 9.50038 20C12.0804 20 12.4042 19.9887 13.4172 19.9394C14.4286 19.891 15.1193 19.7222 15.7232 19.475C16.3479 19.219 16.8774 18.8772 17.4061 18.3215C17.9349 17.7658 18.2587 17.2076 18.502 16.5501C18.7368 15.9144 18.8979 15.1874 18.9432 14.1228C18.9893 13.0558 19 12.7157 19 10C19 7.28432 18.9893 6.94344 18.9432 5.8772C18.8972 4.81256 18.7368 4.0852 18.502 3.44992C18.2587 2.7924 17.9341 2.23504 17.4061 1.67848C16.8782 1.12192 16.3479 0.78032 15.724 0.52504C15.1193 0.27784 14.4286 0.10824 13.418 0.06056C12.405 0.01208 12.0811 0 9.50114 0C6.92114 0 6.59706 0.01128 5.58356 0.06056Z" fill="#DB2FCA"/>
</svg>
