<svg width="123" height="29" viewBox="0 0 123 29" fill="none" xmlns="http://www.w3.org/2000/svg">
<path d="M122.888 11.0911C122.795 10.9417 122.634 10.8525 122.455 10.8525H119.997C119.806 10.8525 119.628 10.9607 119.543 11.1281L114.558 21.034C114.419 21.2925 114.247 21.4211 114.044 21.4211C113.741 21.4211 113.542 21.1126 113.521 21.0775C113.518 21.073 113.515 21.0684 113.513 21.0636L108.44 11.1257C108.354 10.9572 108.181 10.8525 107.987 10.8525H105.372C105.193 10.8525 105.031 10.9418 104.938 11.0913C104.846 11.2408 104.841 11.422 104.925 11.576L111.611 23.8245C111.796 24.181 112.099 24.8597 112.082 25.4449C112.077 25.5949 112.054 25.7884 111.911 25.9546C111.711 26.1875 111.404 26.2223 111.238 26.2223C111.214 26.2223 111.193 26.2215 111.178 26.2208H108.373C108.094 26.2208 107.868 26.4416 107.868 26.7131V28.5079C107.868 28.7794 108.094 29.0002 108.373 29.0002H111.574C111.639 28.9926 111.713 28.9881 111.799 28.983C112.25 28.9559 113.005 28.9105 113.643 28.2882C113.929 28.0092 114.162 27.6815 114.334 27.3142C114.336 27.3106 114.338 27.3071 114.34 27.3037L122.901 11.5755C122.985 11.4215 122.98 11.2404 122.888 11.0911Z" fill="black"/>
<path d="M33.1755 22.313C30.5863 22.313 29.407 19.9674 29.407 17.788C29.407 14.3669 31.4676 13.153 33.2321 13.153C35.5031 13.153 37.0289 15.0047 37.0289 17.7607C37.0289 20.441 35.4443 22.313 33.1755 22.313ZM38.5404 12.5242C37.4261 11.2328 35.8644 10.5501 34.024 10.5501C31.1539 10.5501 29.8815 12.3963 29.8691 12.4149C29.8311 12.4714 29.7663 12.5058 29.6971 12.5058H29.6404C29.582 12.5058 29.5265 12.4816 29.4875 12.4392C29.4486 12.3969 29.43 12.3403 29.4364 12.2838C29.437 12.279 29.4919 11.7898 29.4919 11.1216V7.55793C29.4919 6.35205 28.4848 5.37109 27.2469 5.37109H24.9355C24.7424 5.37109 24.5853 5.52402 24.5853 5.71202V7.60551C24.5853 7.79355 24.7424 7.94653 24.9355 7.94653H25.5115C26.0373 7.94653 26.3389 8.24026 26.3389 8.75242V24.1894C26.3389 24.3774 26.4959 24.5304 26.6889 24.5304H28.9438C29.1369 24.5304 29.2939 24.3774 29.2939 24.1894V24.0141C29.2939 23.4776 29.2665 23.0953 29.2661 23.0915C29.2621 23.0362 29.2819 22.9817 29.3207 22.9411C29.3595 22.9005 29.4139 22.8774 29.4708 22.8774H29.5273C29.5981 22.8774 29.6638 22.913 29.7013 22.9714C29.7133 22.9899 30.9576 24.8611 33.7977 24.8611C35.6101 24.8611 37.2446 24.1727 38.4 22.923C39.6028 21.622 40.2386 19.8178 40.2386 17.7056C40.2386 15.6036 39.6513 13.8119 38.5404 12.5242Z" fill="black"/>
<path d="M49.6986 21.9824H49.6733C48.9122 21.9824 48.2931 21.3793 48.2931 20.6379V7.55573C48.2931 6.35118 47.287 5.37109 46.0503 5.37109H43.7343C43.5425 5.37109 43.3865 5.52316 43.3865 5.70991V7.60785C43.3865 7.79465 43.5425 7.94667 43.7343 7.94667H44.3126C44.8384 7.94667 45.1399 8.24036 45.1399 8.75251V22.8571C45.1399 24.0613 45.6137 24.5304 46.8296 24.5304H49.6986C49.8903 24.5304 50.0464 24.3785 50.0464 24.1917V22.3211C50.0464 22.1343 49.8903 21.9824 49.6986 21.9824Z" fill="black"/>
<path d="M62.244 18.6968C62.244 20.5375 60.8009 22.5883 58.73 22.5883C57.1657 22.5883 56.3472 21.5452 56.3472 20.5149C56.3472 18.9425 58.0904 18.1114 61.3884 18.1114H62.0388C62.1522 18.1114 62.244 18.201 62.244 18.3113V18.6968ZM66.79 21.982C66.022 21.982 65.3971 21.3733 65.3971 20.6251V15.9422C65.3971 12.2633 63.4493 10.5498 59.2673 10.5498C58.4326 10.5498 54.2689 10.6796 54.2689 13.2424V14.1788C54.2689 14.3724 54.4306 14.53 54.6294 14.53H56.8635C57.0623 14.53 57.2239 14.3724 57.2239 14.1788V13.9862C57.2239 13.1473 58.3704 12.8497 59.3521 12.8497C61.3326 12.8497 62.2157 13.7354 62.2157 15.7216V15.9145C62.2157 16.0249 62.1239 16.1144 62.0106 16.1144H61.5582C57.7425 16.1144 53.1941 16.94 53.1941 20.873C53.1941 22.0559 53.6616 23.0666 54.5462 23.7956C55.3794 24.4825 56.5237 24.8607 57.7685 24.8607C60.764 24.8607 61.9642 22.6747 62.0388 22.5286C62.0625 22.4437 62.1422 22.3812 62.2368 22.3812H62.2934C62.4067 22.3812 62.4986 22.4707 62.4986 22.5811V23.1871C62.4986 23.7998 62.777 24.5301 64.1033 24.5301H66.79C66.9888 24.5301 67.1506 24.3726 67.1506 24.1789V22.3331C67.1506 22.1395 66.9888 21.982 66.79 21.982Z" fill="black"/>
<path d="M83.3434 12.1307C82.2879 11.3051 81.1274 11.1424 80.2802 11.0235L80.2666 11.0216C79.9136 10.9721 79.545 10.947 79.171 10.947C78.5588 10.947 77.946 11.0134 77.3498 11.1446C76.6359 11.3017 75.9451 11.5517 75.2964 11.8877C75.2663 11.9033 75.2332 11.9111 75.2001 11.9111C75.1668 11.9111 75.1335 11.9033 75.1032 11.8875C75.0429 11.856 75.0026 11.7973 74.9959 11.7309C74.9865 11.6379 74.9615 11.5489 74.9216 11.4666C74.9211 11.4656 74.829 11.2829 74.6418 11.1445C74.4152 10.977 73.9632 10.8809 73.4017 10.8809H70.8104C70.5279 10.8809 70.2982 11.1047 70.2982 11.3798V12.9574C70.2982 13.2325 70.5279 13.4563 70.8104 13.4563H71.2243C71.7501 13.4563 72.0516 13.7501 72.0516 14.2623V24.0318C72.0516 24.3069 72.2814 24.5307 72.5638 24.5307H74.7207C75.0032 24.5307 75.2329 24.3069 75.2329 24.0318V16.5574C75.2329 16.5516 75.2332 16.5459 75.2337 16.5402C75.2375 16.4969 75.2441 16.434 75.256 16.3589C75.3601 15.8625 75.5576 15.4168 75.845 15.0245C76.0144 14.7932 76.9391 13.6361 78.5132 13.5728C78.5585 13.5709 78.6033 13.57 78.6475 13.57C79.5049 13.57 80.1706 13.8943 80.5781 14.1663C81.6479 14.8804 81.97 15.9461 82.0589 16.3712C82.0617 16.3843 82.063 16.3977 82.063 16.4111V18.35V21.1767V22.8574C82.063 23.986 82.4751 24.4513 83.5328 24.5166C83.5517 24.5177 83.5699 24.5214 83.5873 24.5273C83.6069 24.5257 83.6267 24.5243 83.6477 24.5237C83.6498 24.5237 83.6517 24.5236 83.6538 24.5236C83.6558 24.5236 83.6578 24.5237 83.6598 24.5237C83.6808 24.5243 83.7006 24.5257 83.7203 24.5273C83.7376 24.5214 83.7559 24.5177 83.7747 24.5166C84.8325 24.4513 85.2445 23.986 85.2445 22.8574V21.1767V18.0415V15.7052C85.1701 15.0117 84.836 13.2982 83.3434 12.1307Z" fill="black"/>
<path d="M100.807 20.8323C100.733 20.7096 100.601 20.6363 100.455 20.6363C100.36 20.6363 100.27 20.6673 100.195 20.7261C99.4933 21.2775 98.0577 22.2025 96.332 22.2025C94.0539 22.2025 91.602 20.7865 91.602 17.6775C91.602 15.0237 93.4842 13.0975 96.0774 13.0975C97.0012 13.0975 98.3756 13.4443 98.3756 14.3994V14.5712C98.3756 14.7915 98.5596 14.9708 98.7858 14.9708H100.694C100.921 14.9708 101.105 14.7915 101.105 14.5712V13.5177C101.105 11.083 97.4757 10.5498 96.0774 10.5498C93.7832 10.5498 91.8279 11.2864 90.4229 12.68C89.1135 13.9788 88.3924 15.7634 88.3924 17.7053C88.3924 19.6713 89.1257 21.4702 90.4571 22.7706C91.8572 24.1379 93.7811 24.8607 96.0209 24.8607C98.9872 24.8607 100.905 23.3692 101.592 22.7279C101.729 22.5998 101.757 22.398 101.66 22.2373L100.807 20.8323Z" fill="black"/>
<path fill-rule="evenodd" clip-rule="evenodd" d="M6.95496 14.4878V25.1251C6.95496 27.1764 8.6621 28.8394 10.7681 28.8394C12.1391 28.8394 13.3406 28.1342 14.0125 27.0764L14.0129 27.0765L14.0167 27.0701C14.0571 27.0062 14.0955 26.9411 14.132 26.8747L20.2252 16.5469C20.3194 16.4095 20.4044 16.2657 20.4794 16.1161L20.4819 16.1118L20.4818 16.1116C20.727 15.621 20.8649 15.0701 20.8649 14.4878C20.8649 12.4893 19.2444 10.8602 17.2137 10.7774L17.2134 10.777H17.196C17.1481 10.7752 17.1001 10.7734 17.0518 10.7734C17.0034 10.7734 16.9554 10.7752 16.9075 10.777H10.9124C10.8644 10.7752 10.8165 10.7734 10.7681 10.7734C8.6621 10.7734 6.95496 12.4364 6.95496 14.4878Z" fill="#F06FB0"/>
<path fill-rule="evenodd" clip-rule="evenodd" d="M13.91 14.3516V3.7143C13.91 1.66295 12.2027 0 10.0968 0C8.72583 0 7.52431 0.705088 6.85231 1.76303L6.85196 1.76284L6.84818 1.76931C6.8078 1.83317 6.76933 1.89833 6.73294 1.96473L0.639691 12.2925C0.545503 12.4299 0.460463 12.5738 0.385506 12.7233L0.382998 12.7276L0.383146 12.7277C0.137864 13.2183 0 13.7693 0 14.3516C0 16.3501 1.62052 17.9792 3.6512 18.062L3.65154 18.0624H3.66895C3.71686 18.0642 3.76476 18.0659 3.81316 18.0659C3.86156 18.0659 3.90951 18.0642 3.95742 18.0624H9.95254C10.0004 18.0642 10.0484 18.0659 10.0968 18.0659C12.2027 18.0659 13.91 16.403 13.91 14.3516Z" fill="#F06FB0"/>
<path fill-rule="evenodd" clip-rule="evenodd" d="M6.95496 14.4877V18.0629H9.9525C10.0004 18.0647 10.0484 18.0664 10.0967 18.0664C12.2027 18.0664 13.9099 16.4035 13.9099 14.3521V10.777H10.9124C10.8644 10.7752 10.8165 10.7734 10.7681 10.7734C8.66215 10.7734 6.95496 12.4364 6.95496 14.4877Z" fill="#E03176"/>
</svg>
