<svg width="172" height="41" viewBox="0 0 172 41" fill="none" xmlns="http://www.w3.org/2000/svg">
<path d="M171.098 15.442C170.97 15.2341 170.745 15.1099 170.496 15.1099H167.074C166.807 15.1099 166.559 15.2605 166.442 15.4935L159.501 29.2856C159.307 29.6455 159.068 29.8246 158.786 29.8246C158.363 29.8246 158.087 29.3952 158.056 29.3462C158.053 29.3399 158.049 29.3335 158.046 29.3269L150.983 15.4901C150.863 15.2555 150.622 15.1099 150.353 15.1099H146.711C146.461 15.1099 146.236 15.2341 146.107 15.4423C145.979 15.6505 145.972 15.9028 146.089 16.1172L155.398 33.1709C155.655 33.6672 156.077 34.6123 156.053 35.427C156.047 35.6359 156.014 35.9053 155.816 36.1367C155.537 36.461 155.109 36.5094 154.879 36.5094C154.844 36.5094 154.816 36.5084 154.795 36.5074H150.889C150.501 36.5074 150.186 36.8148 150.186 37.1928V39.6917C150.186 40.0697 150.501 40.3771 150.889 40.3771H155.346C155.437 40.3665 155.54 40.3603 155.659 40.3532C156.288 40.3154 157.339 40.2522 158.227 39.3858C158.626 38.9973 158.949 38.541 159.189 38.0296C159.191 38.0246 159.194 38.0198 159.197 38.015L171.117 16.1164C171.234 15.9021 171.227 15.6499 171.098 15.442Z" fill="black"/>
<path d="M46.1908 31.0666C42.5857 31.0666 40.9438 27.8008 40.9438 24.7665C40.9438 20.0032 43.8127 18.3131 46.2695 18.3131C49.4315 18.3131 51.5559 20.8912 51.5559 24.7284C51.5559 28.4602 49.3497 31.0666 46.1908 31.0666ZM53.6603 17.4375C52.1089 15.6394 49.9345 14.689 47.3721 14.689C43.376 14.689 41.6045 17.2594 41.5871 17.2854C41.5343 17.364 41.4441 17.4119 41.3477 17.4119H41.2688C41.1875 17.4119 41.1102 17.3782 41.0559 17.3192C41.0017 17.2602 40.9759 17.1815 40.9848 17.1029C40.9856 17.0961 41.062 16.415 41.062 15.4847V10.5229C41.062 8.84395 39.6598 7.47816 37.9363 7.47816H34.718C34.4493 7.47816 34.2305 7.69108 34.2305 7.95284V10.5892C34.2305 10.851 34.4493 11.064 34.718 11.064H35.52C36.2521 11.064 36.672 11.4729 36.672 12.186V33.6791C36.672 33.9409 36.8906 34.1539 37.1594 34.1539H40.2989C40.5677 34.1539 40.7863 33.9409 40.7863 33.6791V33.435C40.7863 32.6881 40.7481 32.1559 40.7476 32.1506C40.7421 32.0735 40.7696 31.9976 40.8236 31.9412C40.8776 31.8846 40.9534 31.8525 41.0327 31.8525H41.1113C41.2098 31.8525 41.3014 31.902 41.3536 31.9833C41.3703 32.0091 43.1027 34.6144 47.057 34.6144C49.5805 34.6144 51.8563 33.656 53.4649 31.916C55.1396 30.1045 56.0248 27.5926 56.0248 24.6517C56.0248 21.725 55.2071 19.2304 53.6603 17.4375Z" fill="black"/>
<path d="M69.196 30.6062H69.1609C68.1012 30.6062 67.2392 29.7664 67.2392 28.7342V10.5197C67.2392 8.84262 65.8384 7.47802 64.1165 7.47802H60.8919C60.6249 7.47802 60.4077 7.68975 60.4077 7.94976V10.5923C60.4077 10.8524 60.6249 11.064 60.8919 11.064H61.6971C62.4292 11.064 62.849 11.4729 62.849 12.186V31.824C62.849 33.5007 63.5086 34.1539 65.2015 34.1539H69.196C69.463 34.1539 69.6803 33.9423 69.6803 33.6823V31.0778C69.6803 30.8177 69.463 30.6062 69.196 30.6062Z" fill="black"/>
<path d="M86.6633 26.0323C86.6633 28.5951 84.654 31.4505 81.7706 31.4505C79.5926 31.4505 78.453 29.9982 78.453 28.5637C78.453 26.3744 80.8802 25.2173 85.472 25.2173H86.3776C86.5355 25.2173 86.6633 25.342 86.6633 25.4956V26.0323ZM92.9928 30.6063C91.9234 30.6063 91.0534 29.7588 91.0534 28.7171V22.197C91.0534 17.0748 88.3415 14.6891 82.5188 14.6891C81.3567 14.6891 75.5593 14.8698 75.5593 18.438V19.7418C75.5593 20.0114 75.7845 20.2307 76.0613 20.2307H79.1719C79.4487 20.2307 79.6738 20.0114 79.6738 19.7418V19.4737C79.6738 18.3056 81.27 17.8912 82.6369 17.8912C85.3943 17.8912 86.6239 19.1245 86.6239 21.8899V22.1585C86.6239 22.3122 86.496 22.4367 86.3383 22.4367H85.7084C80.3957 22.4367 74.063 23.5862 74.063 29.0623C74.063 30.7093 74.7139 32.1164 75.9454 33.1315C77.1056 34.0878 78.6989 34.6144 80.4319 34.6144C84.6026 34.6144 86.2737 31.5708 86.3775 31.3674C86.4106 31.2491 86.5215 31.1621 86.6533 31.1621H86.7321C86.8898 31.1621 87.0177 31.2867 87.0177 31.4404V32.2842C87.0177 33.1372 87.4054 34.154 89.2521 34.154H92.9928C93.2696 34.154 93.4947 33.9348 93.4947 33.6651V31.0952C93.4947 30.8255 93.2696 30.6063 92.9928 30.6063Z" fill="black"/>
<path d="M116.04 16.8892C114.571 15.7397 112.955 15.5131 111.775 15.3476L111.756 15.3449C111.265 15.276 110.752 15.2411 110.231 15.2411C109.379 15.2411 108.525 15.3336 107.695 15.5162C106.701 15.7349 105.74 16.083 104.836 16.5509C104.794 16.5726 104.748 16.5834 104.702 16.5834C104.656 16.5834 104.609 16.5725 104.567 16.5506C104.483 16.5067 104.427 16.425 104.418 16.3326C104.405 16.203 104.37 16.0792 104.315 15.9645C104.314 15.9631 104.186 15.7088 103.925 15.5161C103.609 15.2828 102.98 15.149 102.198 15.149H98.5904C98.1971 15.149 97.8772 15.4607 97.8772 15.8437V18.0402C97.8772 18.4232 98.1971 18.7349 98.5904 18.7349H99.1667C99.8987 18.7349 100.319 19.1439 100.319 19.857V33.4593C100.319 33.8423 100.638 34.1539 101.032 34.1539H104.035C104.428 34.1539 104.748 33.8423 104.748 33.4593V23.0525C104.748 23.0445 104.748 23.0366 104.749 23.0287C104.754 22.9683 104.764 22.8807 104.78 22.7762C104.925 22.085 105.2 21.4645 105.6 20.9182C105.836 20.5962 107.124 18.9852 109.315 18.897C109.378 18.8945 109.441 18.8932 109.502 18.8932C110.696 18.8932 111.623 19.3447 112.19 19.7233C113.68 20.7176 114.128 22.2014 114.252 22.7933C114.256 22.8116 114.258 22.8302 114.258 22.8488V25.5485V29.4841V31.8241C114.258 33.3955 114.831 34.0433 116.304 34.1343C116.33 34.1358 116.356 34.141 116.38 34.1491C116.407 34.147 116.435 34.145 116.464 34.1442C116.467 34.1441 116.47 34.144 116.472 34.144C116.475 34.144 116.478 34.1441 116.481 34.1442C116.51 34.145 116.538 34.147 116.565 34.1491C116.589 34.141 116.615 34.1358 116.641 34.1343C118.114 34.0433 118.687 33.3955 118.687 31.8241V29.4841V25.1189V21.866C118.584 20.9004 118.118 18.5148 116.04 16.8892Z" fill="black"/>
<path d="M140.356 29.0056C140.252 28.8347 140.068 28.7327 139.865 28.7327C139.733 28.7327 139.608 28.7759 139.504 28.8577C138.526 29.6254 136.527 30.9133 134.125 30.9133C130.953 30.9133 127.539 28.9418 127.539 24.6131C127.539 20.9182 130.16 18.2364 133.77 18.2364C135.056 18.2364 136.97 18.7191 136.97 20.0489V20.2882C136.97 20.5949 137.226 20.8445 137.541 20.8445H140.198C140.513 20.8445 140.769 20.5949 140.769 20.2882V18.8213C140.769 15.4315 135.717 14.6891 133.77 14.6891C130.576 14.6891 127.853 15.7146 125.897 17.655C124.074 19.4633 123.07 21.9481 123.07 24.6518C123.07 27.3891 124.091 29.8937 125.945 31.7043C127.894 33.608 130.573 34.6144 133.691 34.6144C137.821 34.6144 140.492 32.5377 141.448 31.6448C141.639 31.4665 141.678 31.1856 141.542 30.9618L140.356 29.0056Z" fill="black"/>
<path fill-rule="evenodd" clip-rule="evenodd" d="M9.6835 20.1709V34.9814C9.6835 37.8375 12.0604 40.1529 14.9926 40.1529C16.9014 40.1529 18.5743 39.1711 19.5098 37.6982L19.5103 37.6984L19.5157 37.6894C19.5719 37.6005 19.6254 37.5098 19.6762 37.4173L28.1599 23.0379C28.291 22.8465 28.4093 22.6463 28.5138 22.4381L28.5172 22.4321L28.5171 22.4318C28.8585 21.7488 29.0505 20.9817 29.0505 20.1709C29.0505 17.3884 26.7943 15.1201 23.9669 15.0049L23.9664 15.0043H23.9422C23.8755 15.0018 23.8087 14.9994 23.7414 14.9994C23.674 14.9994 23.6073 15.0018 23.5406 15.0043H15.1935C15.1267 15.0018 15.0599 14.9994 14.9926 14.9994C12.0604 14.9994 9.6835 17.3147 9.6835 20.1709Z" fill="#F06FB0"/>
<path fill-rule="evenodd" clip-rule="evenodd" d="M19.367 19.982V5.17147C19.367 2.31535 16.99 0 14.0579 0C12.1491 0 10.4762 0.981704 9.54057 2.45469L9.54009 2.45443L9.53482 2.46343C9.47859 2.55235 9.42504 2.64307 9.37437 2.73552L0.890652 17.115C0.759512 17.3063 0.64111 17.5066 0.536747 17.7148L0.533254 17.7208L0.53346 17.721C0.19195 18.4041 0 19.1711 0 19.982C0 22.7645 2.25628 25.0328 5.08361 25.148L5.08409 25.1486H5.10834C5.17504 25.151 5.24174 25.1535 5.30912 25.1535C5.3765 25.1535 5.44327 25.151 5.50997 25.1486H13.8571C13.9238 25.151 13.9905 25.1535 14.0579 25.1535C16.99 25.1535 19.367 22.8381 19.367 19.982Z" fill="#F06FB0"/>
<path fill-rule="evenodd" clip-rule="evenodd" d="M9.6835 20.1708V25.1487H13.857C13.9237 25.1511 13.9905 25.1535 14.0578 25.1535C16.99 25.1535 19.367 22.8382 19.367 19.9821V15.0043H15.1935C15.1267 15.0018 15.06 14.9994 14.9926 14.9994C12.0604 14.9994 9.6835 17.3147 9.6835 20.1708Z" fill="#E03176"/>
</svg>
