<svg width="25" height="15" viewBox="0 0 25 15" fill="none" xmlns="http://www.w3.org/2000/svg">
<path fill-rule="evenodd" clip-rule="evenodd" d="M24.4264 1.01566C24.6003 0.430264 24.4264 0 23.5993 0H20.8642C20.1688 0 19.8484 0.371645 19.6745 0.781579C19.6745 0.781579 18.2836 4.20651 16.3132 6.43125C15.6757 7.07526 15.386 7.27993 15.0383 7.27993C14.8644 7.27993 14.6128 7.07526 14.6128 6.48987V1.01566C14.6128 0.313027 14.411 0 13.8314 0H9.53348C9.099 0 8.83761 0.326053 8.83761 0.635132C8.83761 1.30125 9.82261 1.4548 9.92419 3.32822V7.39737C9.92419 8.28947 9.76478 8.45132 9.41704 8.45132C8.48987 8.45132 6.23466 5.01079 4.89685 1.07428C4.63468 0.309079 4.37172 0 3.67273 0H0.937719C0.156286 0 0 0.371645 0 0.781579C0 1.51342 0.927365 5.14342 4.31741 9.94421C6.57771 13.2225 9.76165 15 12.6592 15C14.3979 15 14.6128 14.6053 14.6128 13.9253V11.4474C14.6128 10.6579 14.7775 10.5004 15.3278 10.5004C15.7338 10.5004 16.429 10.7053 18.0519 12.286C19.9062 14.1592 20.2118 15 21.255 15H23.99C24.7714 15 25.1621 14.6053 24.9367 13.8262C24.6901 13.0498 23.8048 11.9236 22.6299 10.5882C21.9924 9.82697 21.0362 9.0073 20.7466 8.59757C20.3409 8.07059 20.4567 7.83651 20.7466 7.36836C20.7466 7.36836 24.0787 2.62599 24.4264 1.01586V1.01566Z" fill="#5181B8"/>
</svg>
