<svg width="123" height="29" viewBox="0 0 123 29" fill="none" xmlns="http://www.w3.org/2000/svg">
<path d="M122.888 11.0909C122.795 10.9415 122.634 10.8523 122.455 10.8523H119.997C119.806 10.8523 119.628 10.9605 119.543 11.1279L114.558 21.0338C114.419 21.2922 114.247 21.4209 114.044 21.4209C113.741 21.4209 113.542 21.1124 113.521 21.0773C113.518 21.0728 113.515 21.0682 113.513 21.0634L108.44 11.1255C108.354 10.957 108.181 10.8523 107.987 10.8523H105.372C105.193 10.8523 105.031 10.9416 104.938 11.0911C104.846 11.2406 104.841 11.4218 104.925 11.5758L111.611 23.8243C111.796 24.1808 112.099 24.8595 112.082 25.4447C112.077 25.5947 112.054 25.7882 111.911 25.9544C111.711 26.1873 111.404 26.2221 111.238 26.2221C111.214 26.2221 111.193 26.2213 111.178 26.2206H108.373C108.094 26.2206 107.868 26.4414 107.868 26.7129V28.5077C107.868 28.7792 108.094 29 108.373 29H111.574C111.639 28.9924 111.713 28.9879 111.799 28.9828C112.25 28.9556 113.005 28.9103 113.643 28.288C113.929 28.0089 114.162 27.6812 114.334 27.314C114.336 27.3104 114.338 27.3069 114.34 27.3035L122.901 11.5753C122.985 11.4213 122.98 11.2402 122.888 11.0909Z" fill="black"/>
<path d="M33.1755 22.3129C30.5863 22.3129 29.407 19.9673 29.407 17.788C29.407 14.3668 31.4676 13.153 33.2321 13.153C35.5031 13.153 37.0289 15.0046 37.0289 17.7606C37.0289 20.4409 35.4443 22.3129 33.1755 22.3129ZM38.5404 12.5241C37.4261 11.2327 35.8644 10.5501 34.024 10.5501C31.1539 10.5501 29.8815 12.3962 29.8691 12.4149C29.8311 12.4713 29.7663 12.5057 29.6971 12.5057H29.6404C29.582 12.5057 29.5265 12.4816 29.4875 12.4392C29.4486 12.3968 29.43 12.3403 29.4364 12.2838C29.437 12.2789 29.4919 11.7897 29.4919 11.1215V7.55787C29.4919 6.35198 28.4848 5.37103 27.2469 5.37103H24.9355C24.7424 5.37103 24.5853 5.52396 24.5853 5.71195V7.60544C24.5853 7.79349 24.7424 7.94646 24.9355 7.94646H25.5115C26.0373 7.94646 26.3389 8.2402 26.3389 8.75235V24.1893C26.3389 24.3773 26.4959 24.5303 26.6889 24.5303H28.9438C29.1369 24.5303 29.2939 24.3773 29.2939 24.1893V24.014C29.2939 23.4775 29.2665 23.0953 29.2661 23.0914C29.2621 23.0361 29.2819 22.9816 29.3207 22.9411C29.3595 22.9004 29.4139 22.8774 29.4708 22.8774H29.5273C29.5981 22.8774 29.6638 22.9129 29.7013 22.9713C29.7133 22.9899 30.9576 24.861 33.7977 24.861C35.6101 24.861 37.2446 24.1727 38.4 22.9229C39.6028 21.6219 40.2386 19.8178 40.2386 17.7056C40.2386 15.6035 39.6513 13.8118 38.5404 12.5241Z" fill="black"/>
<path d="M49.6986 21.9822H49.6733C48.9123 21.9822 48.2931 21.3791 48.2931 20.6377V7.55556C48.2931 6.35101 47.287 5.37092 46.0503 5.37092H43.7343C43.5425 5.37092 43.3865 5.52299 43.3865 5.70974V7.60768C43.3865 7.79448 43.5425 7.9465 43.7343 7.9465H44.3126C44.8384 7.9465 45.1399 8.24019 45.1399 8.75234V22.8569C45.1399 24.0611 45.6137 24.5303 46.8296 24.5303H49.6986C49.8903 24.5303 50.0464 24.3783 50.0464 24.1915V22.321C50.0464 22.1342 49.8903 21.9822 49.6986 21.9822Z" fill="black"/>
<path d="M62.244 18.6971C62.244 20.5378 60.8009 22.5886 58.73 22.5886C57.1657 22.5886 56.3472 21.5456 56.3472 20.5153C56.3472 18.9429 58.0904 18.1118 61.3884 18.1118H62.0388C62.1522 18.1118 62.244 18.2013 62.244 18.3116V18.6971ZM66.79 21.9823C66.022 21.9823 65.3971 21.3736 65.3971 20.6254V15.9425C65.3971 12.2636 63.4493 10.5501 59.2673 10.5501C58.4326 10.5501 54.2689 10.6799 54.2689 13.2427V14.1791C54.2689 14.3728 54.4306 14.5303 54.6294 14.5303H56.8635C57.0623 14.5303 57.2239 14.3728 57.2239 14.1791V13.9866C57.2239 13.1476 58.3704 12.85 59.3521 12.85C61.3326 12.85 62.2157 13.7357 62.2157 15.7219V15.9149C62.2157 16.0253 62.1239 16.1147 62.0106 16.1147H61.5582C57.7425 16.1147 53.1941 16.9403 53.1941 20.8733C53.1941 22.0563 53.6616 23.0669 54.5462 23.796C55.3794 24.4828 56.5238 24.8611 57.7685 24.8611C60.764 24.8611 61.9642 22.675 62.0388 22.5289C62.0625 22.444 62.1422 22.3815 62.2368 22.3815H62.2934C62.4067 22.3815 62.4986 22.471 62.4986 22.5814V23.1874C62.4986 23.8001 62.777 24.5304 64.1033 24.5304H66.79C66.9888 24.5304 67.1506 24.3729 67.1506 24.1792V22.3334C67.1506 22.1398 66.9888 21.9823 66.79 21.9823Z" fill="black"/>
<path d="M83.3434 12.1303C82.2879 11.3047 81.1274 11.1419 80.2802 11.0231L80.2666 11.0212C79.9136 10.9717 79.545 10.9466 79.171 10.9466C78.5588 10.9466 77.946 11.013 77.3498 11.1442C76.6359 11.3012 75.9451 11.5513 75.2964 11.8873C75.2663 11.9029 75.2332 11.9107 75.2001 11.9107C75.1668 11.9107 75.1335 11.9028 75.1032 11.8871C75.0429 11.8556 75.0026 11.7969 74.9959 11.7305C74.9865 11.6375 74.9615 11.5485 74.9216 11.4661C74.9211 11.4652 74.829 11.2825 74.6418 11.1441C74.4152 10.9766 73.9632 10.8804 73.4017 10.8804H70.8104C70.5279 10.8804 70.2982 11.1043 70.2982 11.3794V12.957C70.2982 13.2321 70.5279 13.4559 70.8104 13.4559H71.2243C71.7501 13.4559 72.0516 13.7497 72.0516 14.2619V24.0314C72.0516 24.3065 72.2814 24.5303 72.5638 24.5303H74.7207C75.0032 24.5303 75.2329 24.3065 75.2329 24.0314V16.557C75.2329 16.5512 75.2332 16.5455 75.2337 16.5398C75.2375 16.4965 75.2441 16.4336 75.256 16.3585C75.3601 15.8621 75.5576 15.4164 75.845 15.0241C76.0144 14.7928 76.9391 13.6357 78.5132 13.5724C78.5585 13.5705 78.6033 13.5696 78.6475 13.5696C79.5049 13.5696 80.1706 13.8939 80.5781 14.1659C81.6479 14.88 81.97 15.9457 82.0589 16.3708C82.0617 16.3839 82.063 16.3973 82.063 16.4107V18.3496V21.1763V22.857C82.063 23.9856 82.4751 24.4509 83.5328 24.5162C83.5517 24.5173 83.5699 24.521 83.5873 24.5269C83.6069 24.5253 83.6267 24.5239 83.6477 24.5233C83.6498 24.5233 83.6517 24.5232 83.6538 24.5232C83.6558 24.5232 83.6578 24.5233 83.6598 24.5233C83.6808 24.5239 83.7006 24.5253 83.7203 24.5269C83.7376 24.521 83.7559 24.5173 83.7747 24.5162C84.8325 24.4509 85.2445 23.9856 85.2445 22.857V21.1763V18.0411V15.7048C85.1701 15.0113 84.836 13.2978 83.3434 12.1303Z" fill="black"/>
<path d="M100.807 20.8327C100.733 20.7099 100.601 20.6366 100.455 20.6366C100.36 20.6366 100.27 20.6677 100.195 20.7264C99.4933 21.2778 98.0577 22.2028 96.332 22.2028C94.0539 22.2028 91.602 20.7868 91.602 17.6778C91.602 15.024 93.4842 13.0979 96.0774 13.0979C97.0012 13.0979 98.3756 13.4446 98.3756 14.3997V14.5715C98.3756 14.7918 98.5596 14.9711 98.7858 14.9711H100.694C100.921 14.9711 101.105 14.7918 101.105 14.5715V13.518C101.105 11.0833 97.4757 10.5501 96.0774 10.5501C93.7832 10.5501 91.8279 11.2867 90.4229 12.6803C89.1135 13.9791 88.3924 15.7638 88.3924 17.7056C88.3924 19.6717 89.1257 21.4705 90.4571 22.7709C91.8572 24.1382 93.7811 24.861 96.0209 24.861C98.9872 24.861 100.905 23.3695 101.592 22.7282C101.729 22.6001 101.757 22.3983 101.66 22.2377L100.807 20.8327Z" fill="black"/>
<path fill-rule="evenodd" clip-rule="evenodd" d="M6.95496 14.4873V25.1246C6.95496 27.176 8.6621 28.8389 10.7681 28.8389C12.1391 28.8389 13.3406 28.1338 14.0125 27.0759L14.0129 27.0761L14.0167 27.0696C14.0571 27.0057 14.0955 26.9406 14.132 26.8742L20.2252 16.5465C20.3194 16.409 20.4044 16.2652 20.4794 16.1157L20.4819 16.1114L20.4818 16.1112C20.727 15.6206 20.8649 15.0697 20.8649 14.4873C20.8649 12.4888 19.2444 10.8597 17.2137 10.7769L17.2134 10.7765H17.196C17.1481 10.7747 17.1001 10.773 17.0518 10.773C17.0034 10.773 16.9554 10.7747 16.9075 10.7765H10.9124C10.8644 10.7747 10.8165 10.773 10.7681 10.773C8.6621 10.773 6.95496 12.4359 6.95496 14.4873Z" fill="#F06FB0"/>
<path fill-rule="evenodd" clip-rule="evenodd" d="M13.91 14.3516V3.7143C13.91 1.66295 12.2027 0 10.0968 0C8.72583 0 7.52431 0.705088 6.85231 1.76303L6.85196 1.76284L6.84818 1.76931C6.8078 1.83317 6.76933 1.89833 6.73294 1.96473L0.639691 12.2925C0.545503 12.4299 0.460463 12.5738 0.385506 12.7233L0.382998 12.7276L0.383146 12.7277C0.137864 13.2183 0 13.7693 0 14.3516C0 16.3501 1.62052 17.9792 3.6512 18.062L3.65154 18.0624H3.66895C3.71686 18.0642 3.76476 18.0659 3.81316 18.0659C3.86156 18.0659 3.90951 18.0642 3.95742 18.0624H9.95254C10.0004 18.0642 10.0484 18.0659 10.0968 18.0659C12.2027 18.0659 13.91 16.403 13.91 14.3516Z" fill="#F06FB0"/>
<path fill-rule="evenodd" clip-rule="evenodd" d="M6.95496 14.4873V18.0625H9.9525C10.0004 18.0643 10.0484 18.066 10.0967 18.066C12.2027 18.066 13.9099 16.403 13.9099 14.3517V10.7765H10.9124C10.8644 10.7747 10.8165 10.773 10.7681 10.773C8.66215 10.773 6.95496 12.4359 6.95496 14.4873Z" fill="#E03176"/>
</svg>
