<svg width="42" height="26" viewBox="0 0 42 26" fill="none" xmlns="http://www.w3.org/2000/svg">
<rect width="42" height="21" rx="6" fill="#E64592"/>
<path d="M14.5911 6.22217V14.9333H12.9982L8.86667 9.70661V14.9333H7V6.22217H8.59289L12.7244 11.4737V6.22217H14.5911Z" fill="white"/>
<path d="M22.1205 14.9333H16.8316V6.22217H21.996V8.08884H18.8227V9.6195H21.6227V11.4862H18.8227V13.0666H22.1205V14.9333Z" fill="white"/>
<path d="M33.3976 6.22217H35.314L32.8625 14.9333H30.9585L29.1416 9.33328L27.3496 14.9333H25.4456L22.8696 6.22217H25.122L26.5905 11.7226L28.2207 6.22217H30.2242L31.9042 11.7226L33.3976 6.22217Z" fill="white"/>
<path d="M3.5 26L5.00002 19L11.9282 19L3.5 26Z" fill="#E64592"/>
</svg>
